<svg width="98" height="92" viewBox="0 0 98 92" fill="none" xmlns="http://www.w3.org/2000/svg">
<path d="M40.7358 53.6793C46.7429 59.5161 54.0113 64.0225 62.0306 66.8819L72.8794 58.613C73.201 58.4009 73.5824 58.2873 73.9729 58.2873C74.3635 58.2873 74.7448 58.4009 75.0664 58.613L95.2102 71.0439C95.9749 71.4843 96.6223 72.089 97.1011 72.8101C97.5799 73.5313 97.8772 74.3493 97.9693 75.1994C98.0614 76.0495 97.9458 76.9084 97.6318 77.7084C97.3178 78.5084 96.8138 79.2275 96.1598 79.8089L86.721 88.7393C85.3693 90.0186 83.7079 90.9574 81.8852 91.472C80.0625 91.9866 78.1351 92.061 76.2751 91.6885C57.7204 88.018 40.6182 79.4217 26.9229 66.8819C13.5316 54.2174 4.26489 38.1031 0.246863 20.4935C-0.150065 18.7395 -0.067221 16.9171 0.487368 15.2028C1.04196 13.4885 2.04948 11.9404 3.41231 10.7087L13.1964 1.66808C13.8019 1.07213 14.5402 0.615103 15.3562 0.331213C16.1722 0.0473231 17.0447 -0.0560725 17.9083 0.0287686C18.772 0.11361 19.6044 0.384489 20.3432 0.821123C21.0821 1.25776 21.7082 1.84883 22.1748 2.55009L35.5847 21.5961C35.816 21.8951 35.9409 22.2575 35.9409 22.6297C35.9409 23.0019 35.816 23.3642 35.5847 23.6633L26.7503 33.834C29.8167 41.3613 34.594 48.1403 40.7358 53.6793Z" fill="#9DC180"/>
</svg>
