<svg width="16" height="16" viewBox="0 0 16 16" fill="none" xmlns="http://www.w3.org/2000/svg">
<path d="M7.99967 1.3335C9.23735 1.3335 10.4243 1.82516 11.2995 2.70033C12.1747 3.5755 12.6663 4.76249 12.6663 6.00016C12.6663 8.66683 7.99967 14.6668 7.99967 14.6668C7.99967 14.6668 3.33301 8.66683 3.33301 6.00016C3.33301 4.76249 3.82467 3.5755 4.69984 2.70033C5.57501 1.82516 6.762 1.3335 7.99967 1.3335Z" stroke="#FFA03C" stroke-width="1.33333" stroke-linejoin="round"/>
<path d="M8.00033 7.33317C8.73671 7.33317 9.33366 6.73622 9.33366 5.99984C9.33366 5.26346 8.73671 4.6665 8.00033 4.6665C7.26395 4.6665 6.66699 5.26346 6.66699 5.99984C6.66699 6.73622 7.26395 7.33317 8.00033 7.33317Z" fill="#FFA03C"/>
</svg>
