<svg width="49" height="30" viewBox="0 0 49 30" fill="none" xmlns="http://www.w3.org/2000/svg">
<path d="M0 14C0 6.26801 6.26801 0 14 0H34C41.732 0 48 6.26801 48 14C48 21.732 41.732 28 34 28H14C6.26801 28 0 21.732 0 14Z" fill="url(#paint0_linear_4316_222)"/>
<g filter="url(#filter0_d_4316_222)">
<path d="M23 14C23 7.92487 27.9249 3 34 3C40.0751 3 45 7.92487 45 14C45 20.0751 40.0751 25 34 25C27.9249 25 23 20.0751 23 14Z" fill="white"/>
</g>
<defs>
<filter id="filter0_d_4316_222" x="19" y="0" width="30" height="30" filterUnits="userSpaceOnUse" color-interpolation-filters="sRGB">
<feFlood flood-opacity="0" result="BackgroundImageFix"/>
<feColorMatrix in="SourceAlpha" type="matrix" values="0 0 0 0 0 0 0 0 0 0 0 0 0 0 0 0 0 0 127 0" result="hardAlpha"/>
<feOffset dy="1"/>
<feGaussianBlur stdDeviation="2"/>
<feComposite in2="hardAlpha" operator="out"/>
<feColorMatrix type="matrix" values="0 0 0 0 0 0 0 0 0 0 0 0 0 0 0 0 0 0 0.28 0"/>
<feBlend mode="normal" in2="BackgroundImageFix" result="effect1_dropShadow_4316_222"/>
<feBlend mode="normal" in="SourceGraphic" in2="effect1_dropShadow_4316_222" result="shape"/>
</filter>
<linearGradient id="paint0_linear_4316_222" x1="0" y1="14" x2="48" y2="14" gradientUnits="userSpaceOnUse">
<stop stop-color="#00C0E8"/>
<stop offset="1" stop-color="#00E8B4"/>
</linearGradient>
</defs>
</svg>
