<svg width="18" height="18" viewBox="0 0 18 18" fill="none" xmlns="http://www.w3.org/2000/svg">
<path d="M9 1.5C9.99456 1.5 10.9484 1.89509 11.6517 2.59835C12.3549 3.30161 12.75 4.25544 12.75 5.25C12.75 7.875 9 13.5 9 13.5C9 13.5 5.25 7.875 5.25 5.25C5.25 4.25544 5.64509 3.30161 6.34835 2.59835C7.05161 1.89509 8.00544 1.5 9 1.5Z" stroke="#FFA03C" stroke-width="1.5" stroke-linejoin="round"/>
<path d="M9 6.375C9.62132 6.375 10.125 5.87132 10.125 5.25C10.125 4.62868 9.62132 4.125 9 4.125C8.37868 4.125 7.875 4.62868 7.875 5.25C7.875 5.87132 8.37868 6.375 9 6.375Z" fill="#FFA03C"/>
</svg>
