<svg width="96" height="106" viewBox="0 0 96 106" fill="none" xmlns="http://www.w3.org/2000/svg">
<path d="M48 86.0497C41.4 86.0497 36 90.3522 36 95.6108C36 100.869 41.4 105.172 48 105.172C54.6 105.172 60 100.869 60 95.6108C60 90.3522 54.6 86.0497 48 86.0497ZM12 0C5.4 0 0 4.30249 0 9.56108C0 14.8197 5.4 19.1222 12 19.1222C18.6 19.1222 24 14.8197 24 9.56108C24 4.30249 18.6 0 12 0ZM12 28.6832C5.4 28.6832 0 32.9857 0 38.2443C0 43.5029 5.4 47.8054 12 47.8054C18.6 47.8054 24 43.5029 24 38.2443C24 32.9857 18.6 28.6832 12 28.6832ZM12 57.3665C5.4 57.3665 0 61.669 0 66.9276C0 72.1861 5.4 76.4886 12 76.4886C18.6 76.4886 24 72.1861 24 66.9276C24 61.669 18.6 57.3665 12 57.3665ZM84 19.1222C90.6 19.1222 96 14.8197 96 9.56108C96 4.30249 90.6 0 84 0C77.4 0 72 4.30249 72 9.56108C72 14.8197 77.4 19.1222 84 19.1222ZM48 57.3665C41.4 57.3665 36 61.669 36 66.9276C36 72.1861 41.4 76.4886 48 76.4886C54.6 76.4886 60 72.1861 60 66.9276C60 61.669 54.6 57.3665 48 57.3665ZM84 57.3665C77.4 57.3665 72 61.669 72 66.9276C72 72.1861 77.4 76.4886 84 76.4886C90.6 76.4886 96 72.1861 96 66.9276C96 61.669 90.6 57.3665 84 57.3665ZM84 28.6832C77.4 28.6832 72 32.9857 72 38.2443C72 43.5029 77.4 47.8054 84 47.8054C90.6 47.8054 96 43.5029 96 38.2443C96 32.9857 90.6 28.6832 84 28.6832ZM48 28.6832C41.4 28.6832 36 32.9857 36 38.2443C36 43.5029 41.4 47.8054 48 47.8054C54.6 47.8054 60 43.5029 60 38.2443C60 32.9857 54.6 28.6832 48 28.6832ZM48 0C41.4 0 36 4.30249 36 9.56108C36 14.8197 41.4 19.1222 48 19.1222C54.6 19.1222 60 14.8197 60 9.56108C60 4.30249 54.6 0 48 0Z" fill="#A7A7A7"/>
</svg>
