<svg width="26" height="26" viewBox="0 0 26 26" fill="none" xmlns="http://www.w3.org/2000/svg">
<path d="M15.1663 15.9902V3.79183C15.1663 3.07353 14.881 2.38466 14.3731 1.87675C13.8652 1.36884 13.1763 1.0835 12.458 1.0835C11.7397 1.0835 11.0508 1.36884 10.5429 1.87675C10.035 2.38466 9.74967 3.07353 9.74967 3.79183V15.9902C8.88006 16.5712 8.22036 17.4165 7.868 18.4012C7.51565 19.386 7.48932 20.4579 7.79291 21.4587C8.0965 22.4596 8.71391 23.3362 9.55396 23.9592C10.394 24.5823 11.4121 24.9186 12.458 24.9186C13.5039 24.9186 14.522 24.5823 15.3621 23.9592C16.2021 23.3362 16.8195 22.4596 17.1231 21.4587C17.4267 20.4579 17.4004 19.386 17.048 18.4012C16.6957 17.4165 16.036 16.5712 15.1663 15.9902Z" stroke="#FFA03C" stroke-width="2" stroke-linecap="round" stroke-linejoin="round"/>
</svg>
