<svg width="24" height="24" viewBox="0 0 24 24" fill="none" xmlns="http://www.w3.org/2000/svg">
<g clip-path="url(#clip0_4312_650)">
<path d="M20.7901 4.25554C20.5072 3.9823 20.1283 3.83111 19.735 3.83453C19.3417 3.83795 18.9655 3.9957 18.6874 4.27381C18.4093 4.55192 18.2516 4.92814 18.2481 5.32144C18.2447 5.71473 18.3959 6.09364 18.6691 6.37654C19.4076 7.11496 19.9933 7.99159 20.393 8.95638C20.7926 9.92118 20.9983 10.9552 20.9983 11.9995C20.9983 13.0438 20.7926 14.0779 20.393 15.0427C19.9933 16.0075 19.4076 16.8841 18.6691 17.6225C18.3959 17.9054 18.2447 18.2843 18.2481 18.6776C18.2516 19.0709 18.4093 19.4472 18.6874 19.7253C18.9655 20.0034 19.3417 20.1611 19.735 20.1646C20.1283 20.168 20.5072 20.0168 20.7901 19.7435C21.8072 18.7266 22.6139 17.5193 23.1644 16.1906C23.7148 14.8619 23.9981 13.4378 23.9981 11.9995C23.9981 10.5613 23.7148 9.13719 23.1644 7.80846C22.6139 6.47974 21.8072 5.27245 20.7901 4.25554Z" fill="#374957"/>
<path d="M18.652 11.9994C18.6498 11.0398 18.3307 10.1078 17.7442 9.34826C17.1578 8.58874 16.3368 8.04423 15.409 7.79937V1.67937C15.409 1.45946 15.3606 1.24225 15.2672 1.04312C15.1739 0.843996 15.0379 0.667826 14.869 0.527089C14.7 0.386352 14.5021 0.284492 14.2894 0.228723C14.0767 0.172954 13.8543 0.16464 13.638 0.204371C10.6941 0.75629 8.06116 2.38435 6.252 4.77137H5.5C4.0418 4.77296 2.64377 5.35293 1.61267 6.38404C0.581561 7.41514 0.00158817 8.81317 0 10.2714L0 13.7274C0.00158817 15.1856 0.581561 16.5836 1.61267 17.6147C2.64377 18.6458 4.0418 19.2258 5.5 19.2274H6.254C8.06181 21.6159 10.6941 23.2457 13.638 23.7994C13.7274 23.8161 13.8181 23.8245 13.909 23.8244C14.3068 23.8244 14.6884 23.6663 14.9697 23.385C15.251 23.1037 15.409 22.7222 15.409 22.3244V16.1994C16.3368 15.9545 17.1578 15.41 17.7442 14.6505C18.3307 13.891 18.6498 12.959 18.652 11.9994ZM12.409 20.3214C10.7226 19.623 9.28553 18.433 8.285 16.9064C8.14856 16.6977 7.96227 16.5264 7.74297 16.4078C7.52367 16.2893 7.27829 16.2273 7.029 16.2274H5.5C4.83696 16.2274 4.20107 15.964 3.73223 15.4951C3.26339 15.0263 3 14.3904 3 13.7274V10.2714C3 9.60833 3.26339 8.97245 3.73223 8.5036C4.20107 8.03476 4.83696 7.77137 5.5 7.77137H7.029C7.27829 7.77148 7.52367 7.70945 7.74297 7.5909C7.96227 7.47234 8.14856 7.30101 8.285 7.09237C9.28553 5.56572 10.7226 4.37573 12.409 3.67737V20.3214Z" fill="#374957"/>
</g>
<defs>
<clipPath id="clip0_4312_650">
<rect width="24" height="24" fill="white"/>
</clipPath>
</defs>
</svg>
