<svg width="28" height="28" viewBox="0 0 28 28" fill="none" xmlns="http://www.w3.org/2000/svg">
<path d="M11.188 5.35482C11.459 5.08218 11.7932 4.88073 12.1609 4.76838C12.5285 4.65603 12.9182 4.63625 13.2953 4.71081C13.6725 4.78536 14.0253 4.95194 14.3226 5.19574C14.6198 5.43953 14.8522 5.75299 14.9991 6.10824C15.146 6.4635 15.2028 6.84954 15.1646 7.23206C15.1263 7.61457 14.9941 7.98171 14.7798 8.30084C14.5654 8.61996 14.2756 8.88118 13.9359 9.06128C13.5963 9.24137 13.2174 9.33476 12.833 9.33315H2.33301M14.688 22.6448C14.959 22.9175 15.2932 23.1189 15.6609 23.2313C16.0285 23.3436 16.4182 23.3634 16.7953 23.2888C17.1725 23.2143 17.5253 23.0477 17.8226 22.8039C18.1198 22.5601 18.3522 22.2466 18.4991 21.8914C18.646 21.5361 18.7028 21.1501 18.6646 20.7676C18.6263 20.3851 18.4941 20.0179 18.2798 19.6988C18.0654 19.3797 17.7756 19.1185 17.4359 18.9384C17.0963 18.7583 16.7174 18.6649 16.333 18.6665H2.33301M20.6847 9.01815C21.024 8.67968 21.4415 8.43005 21.9003 8.29133C22.359 8.15261 22.8449 8.12908 23.3149 8.22282C23.7849 8.31655 24.2246 8.52467 24.595 8.82876C24.9655 9.13286 25.2553 9.52355 25.4388 9.96629C25.6223 10.409 25.6939 10.8902 25.6473 11.3672C25.6006 11.8442 25.4371 12.3023 25.1712 12.7011C24.9054 13.0999 24.5453 13.427 24.123 13.6535C23.7006 13.88 23.2289 13.999 22.7497 13.9998H2.33301" stroke="#64A0FF" stroke-width="2" stroke-linecap="round" stroke-linejoin="round"/>
</svg>
