<svg width="26" height="26" viewBox="0 0 26 26" fill="none" xmlns="http://www.w3.org/2000/svg">
<path d="M1.625 9.20845C2.93224 7.41768 4.6438 5.96085 6.62042 4.95652C8.59704 3.95218 10.7829 3.42871 13 3.42871C15.2171 3.42871 17.403 3.95218 19.3796 4.95652C21.3562 5.96085 23.0678 7.41768 24.375 9.20845" stroke="white" stroke-opacity="0.55" stroke-width="2" stroke-linecap="round" stroke-linejoin="round"/>
<path d="M5.4165 13.0002C6.33046 11.8692 7.48581 10.957 8.79793 10.3303C10.1101 9.70366 11.5457 9.37842 12.9998 9.37842C14.4539 9.37842 15.8896 9.70366 17.2017 10.3303C18.5139 10.957 19.6692 11.8692 20.5832 13.0002" stroke="white" stroke-opacity="0.55" stroke-width="2" stroke-linecap="round" stroke-linejoin="round"/>
<path d="M9.2085 16.7916C10.221 15.7991 11.5823 15.2432 13.0002 15.2432C14.418 15.2432 15.7793 15.7991 16.7918 16.7916" stroke="white" stroke-opacity="0.55" stroke-width="2" stroke-linecap="round" stroke-linejoin="round"/>
<path d="M12.9998 21.6667C13.5981 21.6667 14.0832 21.1816 14.0832 20.5833C14.0832 19.985 13.5981 19.5 12.9998 19.5C12.4015 19.5 11.9165 19.985 11.9165 20.5833C11.9165 21.1816 12.4015 21.6667 12.9998 21.6667Z" fill="white" fill-opacity="0.55" stroke="white" stroke-opacity="0.55" stroke-width="2" stroke-linecap="round" stroke-linejoin="round"/>
</svg>
