<svg width="26" height="26" viewBox="0 0 26 26" fill="none" xmlns="http://www.w3.org/2000/svg">
<path d="M15.1668 3.25H3.25016C2.05355 3.25 1.0835 4.22005 1.0835 5.41667V15.1667C1.0835 16.3633 2.05355 17.3333 3.25016 17.3333H15.1668C16.3634 17.3333 17.3335 16.3633 17.3335 15.1667V5.41667C17.3335 4.22005 16.3634 3.25 15.1668 3.25Z" stroke="white" stroke-opacity="0.55" stroke-width="2" stroke-linecap="round" stroke-linejoin="round"/>
<path d="M17.3335 8.6665H21.6668L24.9168 11.9165V17.3332H17.3335V8.6665Z" stroke="white" stroke-opacity="0.55" stroke-width="2" stroke-linecap="round" stroke-linejoin="round"/>
<path d="M5.95833 22.7502C7.4541 22.7502 8.66667 21.5376 8.66667 20.0418C8.66667 18.5461 7.4541 17.3335 5.95833 17.3335C4.46256 17.3335 3.25 18.5461 3.25 20.0418C3.25 21.5376 4.46256 22.7502 5.95833 22.7502Z" stroke="white" stroke-opacity="0.55" stroke-width="2" stroke-linecap="round" stroke-linejoin="round"/>
<path d="M20.0418 22.7502C21.5376 22.7502 22.7502 21.5376 22.7502 20.0418C22.7502 18.5461 21.5376 17.3335 20.0418 17.3335C18.5461 17.3335 17.3335 18.5461 17.3335 20.0418C17.3335 21.5376 18.5461 22.7502 20.0418 22.7502Z" stroke="white" stroke-opacity="0.55" stroke-width="2" stroke-linecap="round" stroke-linejoin="round"/>
</svg>
