<svg width="74" height="42" viewBox="0 0 74 42" fill="none" xmlns="http://www.w3.org/2000/svg">
<path d="M0 19C0 8.50659 8.50659 0 19 0H53C63.4934 0 72 8.50659 72 19C72 29.4934 63.4934 38 53 38H19C8.50659 38 0 29.4934 0 19Z" fill="url(#paint0_linear_4316_189)"/>
<g filter="url(#filter0_d_4316_189)">
<path d="M38 19C38 10.7157 44.7157 4 53 4C61.2843 4 68 10.7157 68 19C68 27.2843 61.2843 34 53 34C44.7157 34 38 27.2843 38 19Z" fill="white"/>
</g>
<defs>
<filter id="filter0_d_4316_189" x="32" y="0" width="42" height="42" filterUnits="userSpaceOnUse" color-interpolation-filters="sRGB">
<feFlood flood-opacity="0" result="BackgroundImageFix"/>
<feColorMatrix in="SourceAlpha" type="matrix" values="0 0 0 0 0 0 0 0 0 0 0 0 0 0 0 0 0 0 127 0" result="hardAlpha"/>
<feOffset dy="2"/>
<feGaussianBlur stdDeviation="3"/>
<feComposite in2="hardAlpha" operator="out"/>
<feColorMatrix type="matrix" values="0 0 0 0 0 0 0 0 0 0 0 0 0 0 0 0 0 0 0.3 0"/>
<feBlend mode="normal" in2="BackgroundImageFix" result="effect1_dropShadow_4316_189"/>
<feBlend mode="normal" in="SourceGraphic" in2="effect1_dropShadow_4316_189" result="shape"/>
</filter>
<linearGradient id="paint0_linear_4316_189" x1="0" y1="19" x2="72" y2="19" gradientUnits="userSpaceOnUse">
<stop stop-color="#00C0E8"/>
<stop offset="1" stop-color="#00E8B4"/>
</linearGradient>
</defs>
</svg>
